<?xml version="1.0" standalone="no"?>
<!DOCTYPE svg PUBLIC "-//W3C//DTD SVG 20010904//EN"
 "http://www.w3.org/TR/2001/REC-SVG-20010904/DTD/svg10.dtd">
<svg version="1.0" xmlns="http://www.w3.org/2000/svg"
 width="1280.000000pt" height="1280.000000pt" viewBox="0 0 1280.000000 1280.000000"
 preserveAspectRatio="xMidYMid meet">
<metadata>
Created by potrace 1.15, written by Peter Selinger 2001-2017
</metadata>
<g transform="translate(0.000000,1280.000000) scale(0.100000,-0.100000)"
fill="#ffc107" stroke="none">
<path d="M3975 12456 c-37 -16 -92 -77 -101 -112 -19 -76 17 -168 79 -201 46
-24 130 -22 164 3 37 28 58 66 49 90 -7 18 -8 18 -18 -1 -25 -45 -93 -65 -152
-45 -56 18 -86 62 -86 123 0 74 38 126 108 147 20 6 22 8 7 9 -11 0 -34 -6
-50 -13z"/>
<path d="M4170 12459 c63 -25 112 -98 129 -195 34 -187 -100 -355 -283 -354
-108 1 -221 48 -367 153 -46 33 -123 84 -171 113 -389 231 -797 251 -1097 53
-103 -68 -173 -140 -252 -262 l-57 -88 -41 84 c-72 150 -197 248 -356 282 -89
19 -134 19 -232 0 -185 -35 -366 -171 -450 -340 -21 -44 -42 -90 -45 -102 -4
-15 -26 -31 -69 -51 -314 -144 -465 -527 -323 -823 46 -95 134 -183 233 -232
40 -20 82 -37 92 -37 32 0 21 -14 -47 -55 -357 -219 -488 -615 -348 -1056 49
-154 118 -284 250 -472 163 -230 192 -390 96 -528 -54 -77 -137 -119 -235
-119 -40 0 -88 5 -107 10 -56 15 -125 64 -143 101 -9 19 -17 27 -17 19 0 -9
12 -34 26 -57 92 -141 336 -150 469 -18 51 52 87 129 93 201 10 126 -36 233
-190 449 -144 201 -230 385 -264 565 -18 90 -19 256 -4 341 37 205 159 394
328 507 84 57 160 97 168 90 3 -4 -14 -33 -38 -65 -77 -100 -128 -182 -166
-261 -20 -42 -39 -79 -42 -82 -4 -3 -17 -39 -31 -80 -19 -61 -24 -96 -24 -185
0 -100 3 -115 27 -165 15 -30 55 -86 89 -125 74 -85 99 -136 110 -229 l8 -71
-3 85 c-4 100 -22 143 -110 258 -32 43 -62 94 -71 124 -22 75 -18 90 9 33 77
-165 305 -219 418 -99 55 59 74 154 43 213 -19 38 -72 81 -98 81 -16 0 -10 -6
20 -19 23 -11 49 -31 58 -45 36 -54 28 -144 -17 -209 -52 -74 -186 -95 -284
-44 -178 91 -205 327 -68 587 56 105 99 163 55 73 -69 -140 -104 -327 -82
-435 35 -166 217 -258 301 -150 23 28 26 84 7 100 -10 8 -12 3 -9 -27 3 -32
-1 -42 -28 -64 -54 -46 -122 -34 -187 35 -114 118 -75 377 100 670 29 48 54
88 57 88 3 0 6 -17 8 -38 6 -96 41 -132 129 -132 l48 -1 -37 -34 c-49 -46
-102 -48 -143 -8 -24 25 -27 33 -22 78 3 27 8 61 11 75 5 21 4 20 -8 -5 -25
-50 -20 -118 10 -154 21 -26 33 -31 67 -31 51 0 100 28 122 70 l16 30 -46 0
c-82 0 -125 41 -125 120 l0 27 138 6 c205 9 386 61 623 180 l124 62 37 90
c113 270 170 550 150 733 l-8 74 45 -7 c81 -12 111 -44 114 -121 1 -24 5 -44
8 -44 12 0 17 70 8 105 -16 58 -57 84 -118 76 -7 -2 -10 2 -7 8 9 14 109 33
132 25 72 -26 86 -102 32 -169 l-32 -40 32 29 c43 40 57 85 39 128 -29 70 -86
83 -190 44 -37 -14 -66 -22 -63 -17 7 11 161 104 233 140 104 52 226 83 328
85 103 1 151 -12 201 -57 45 -39 64 -76 64 -127 0 -33 -6 -48 -30 -72 -27 -26
-35 -29 -68 -24 -27 5 -33 4 -22 -3 8 -6 31 -11 51 -11 53 0 99 53 99 113 0
81 -80 172 -173 198 -107 30 -284 3 -436 -67 -108 -48 -52 -7 74 56 175 87
324 102 441 45 144 -70 200 -265 107 -375 -42 -51 -97 -73 -166 -68 -54 4 -63
8 -93 41 -20 21 -35 48 -35 64 -2 24 -2 25 -6 5 -6 -30 32 -89 70 -108 61 -32
169 -13 226 39 58 54 77 165 44 263 -21 61 -100 142 -163 167 l-45 17 40 -6
c59 -8 114 -36 196 -97 41 -30 88 -62 106 -71 37 -18 153 -37 153 -24 0 4 -13
8 -28 8 -57 0 -119 31 -201 101 -46 38 -100 78 -120 88 -42 21 -127 41 -177
41 -138 0 -392 -110 -574 -248 -58 -44 -106 -79 -108 -77 -6 6 40 90 94 171
149 226 392 354 675 354 233 0 498 -100 749 -285 193 -142 290 -185 421 -185
65 0 85 4 137 31 147 73 215 235 167 397 -9 29 -30 68 -47 88 -31 35 -96 75
-120 73 -7 0 -2 -5 12 -10z m-2446 -261 c145 -48 252 -157 305 -310 19 -55 19
-56 0 -87 -21 -35 -72 -69 -178 -119 -63 -30 -84 -35 -145 -35 -129 0 -214 59
-240 165 -6 25 -3 28 36 38 23 7 52 10 64 7 14 -2 21 0 17 6 -3 5 -32 7 -64 5
-51 -4 -59 -2 -59 13 0 30 20 73 48 102 14 15 21 27 14 27 -20 0 -64 -69 -69
-110 -5 -39 -18 -58 -30 -46 -3 3 0 25 7 50 14 50 69 110 103 113 12 1 43 7
69 14 83 21 159 -15 200 -94 41 -80 20 -166 -53 -215 -69 -47 -155 -7 -170 80
-6 39 -7 40 -8 10 -3 -98 106 -156 189 -99 51 34 73 70 78 130 6 71 -30 145
-90 184 -62 41 -159 45 -233 8 -63 -30 -103 -87 -112 -158 -4 -24 -17 -55 -31
-72 -64 -77 -77 -158 -38 -242 44 -93 149 -144 269 -129 122 16 285 122 382
251 30 41 60 77 65 80 33 20 23 -292 -14 -440 -31 -125 -66 -231 -114 -343
l-37 -87 -70 -37 c-105 -56 -309 -134 -426 -163 -74 -19 -143 -28 -238 -32
l-134 -6 14 21 c8 11 42 40 75 65 140 103 245 269 252 398 5 91 -2 127 -39
182 -74 112 -241 128 -328 33 -17 -18 -35 -26 -58 -26 -130 0 -227 -139 -193
-279 30 -124 172 -196 280 -141 72 37 107 118 76 178 -24 46 -63 72 -105 71
-35 -1 -35 -2 8 -9 59 -9 91 -46 91 -103 0 -134 -167 -184 -278 -83 -36 32
-52 70 -52 122 0 92 58 168 136 181 l37 6 -6 -44 c-3 -25 -2 -50 2 -58 5 -8
10 4 13 34 3 26 10 51 15 56 13 13 78 -8 113 -38 55 -46 75 -97 75 -195 0 -85
-1 -88 -55 -194 -85 -167 -130 -184 -285 -109 -74 35 -159 112 -202 181 -41
68 -67 170 -66 264 1 240 133 444 358 554 l70 34 33 79 c60 147 177 270 317
333 53 24 114 41 195 54 46 7 154 -6 214 -26z m-203 -510 c70 -59 210 -76 311
-38 28 10 47 15 42 10 -21 -21 -126 -50 -182 -50 -88 0 -155 24 -206 73 -50
48 -80 122 -56 137 10 6 19 -6 37 -48 12 -32 36 -69 54 -84z m-108 65 c9 -42
63 -100 121 -131 46 -24 62 -27 152 -27 95 0 104 2 172 36 40 19 72 34 72 32
0 -9 -99 -93 -143 -121 -175 -111 -357 -97 -424 33 -24 45 -20 124 7 173 26
45 35 46 43 5z m-185 -390 c22 -12 49 -39 67 -68 27 -43 30 -57 30 -129 0 -70
-4 -90 -32 -149 -32 -68 -99 -162 -147 -206 -22 -21 -20 -14 17 59 40 79 42
86 42 174 -1 79 -4 99 -28 148 -31 63 -71 102 -129 125 -33 13 -37 18 -26 29
23 23 91 44 131 40 20 -2 54 -13 75 -23z m-280 -65 c-2 -6 -15 -13 -29 -15
-53 -7 -71 -15 -112 -51 l-42 -37 26 35 c14 19 45 45 69 58 47 24 94 29 88 10z
m137 -26 c88 -61 125 -203 86 -330 -12 -39 -26 -74 -31 -77 -6 -4 -2 13 7 37
12 29 18 69 18 123 0 127 -47 206 -143 241 -57 21 -56 20 -47 34 11 18 64 4
110 -28z"/>
<path d="M8595 12453 c-44 -23 -84 -63 -108 -108 -18 -33 -22 -57 -22 -140 0
-89 3 -105 27 -150 59 -112 163 -175 289 -175 127 0 227 44 419 185 273 200
539 295 795 282 302 -16 526 -158 679 -431 26 -48 47 -89 45 -90 -2 -2 -51 32
-109 75 -60 46 -151 102 -212 132 -76 37 -107 57 -108 70 0 10 -21 40 -47 68
-139 149 -431 171 -580 44 -23 -19 -64 -66 -93 -105 -29 -39 -75 -91 -104
-117 -43 -39 -44 -42 -11 -18 22 16 85 75 140 131 85 86 109 105 160 124 160
59 369 25 490 -81 56 -50 45 -59 -37 -30 -59 20 -92 25 -173 25 -127 0 -178
-21 -290 -118 -84 -73 -121 -93 -195 -107 -42 -8 -42 -8 16 -5 71 4 104 19
200 92 79 60 139 89 199 98 l40 6 -45 -17 c-63 -25 -142 -106 -163 -167 -32
-93 -17 -197 36 -254 59 -64 174 -84 240 -43 35 22 67 74 67 108 -1 10 -7 0
-15 -21 -23 -65 -55 -89 -123 -94 -169 -12 -263 159 -178 326 29 57 71 96 136
126 66 30 210 29 305 -3 74 -24 203 -89 245 -122 24 -20 24 -20 -17 0 -164 80
-356 114 -469 82 -114 -31 -194 -141 -170 -234 10 -41 54 -77 95 -77 20 0 43
5 51 11 11 7 5 8 -20 4 -45 -8 -85 21 -99 72 -19 69 47 163 136 194 99 35 307
2 456 -72 72 -36 226 -129 233 -140 3 -5 -26 3 -63 17 -103 39 -164 24 -193
-46 -16 -39 0 -87 42 -126 l32 -29 -32 40 c-54 67 -40 143 32 169 21 7 123
-11 130 -23 3 -4 -9 -8 -26 -9 -48 -1 -75 -20 -93 -64 -15 -38 -12 -118 5
-118 4 0 5 10 3 23 -6 34 19 98 47 118 14 10 46 21 71 24 l46 7 -9 -74 c-23
-185 43 -492 166 -771 25 -56 26 -57 133 -111 238 -118 432 -175 636 -183 154
-6 149 -3 126 -85 -12 -46 -49 -68 -114 -68 -25 0 -45 -3 -45 -6 0 -16 45 -66
70 -79 76 -39 160 4 160 82 0 40 -18 118 -26 110 -2 -2 1 -27 7 -54 21 -88
-11 -143 -83 -143 -30 0 -47 8 -76 35 l-37 34 48 1 c88 0 127 41 130 135 0 19
4 32 8 29 14 -8 110 -173 145 -248 64 -139 90 -306 63 -411 -12 -49 -66 -118
-110 -140 -44 -23 -93 -19 -129 12 -27 22 -31 32 -28 64 3 30 1 35 -9 27 -19
-16 -16 -72 7 -100 84 -108 266 -16 301 150 22 108 -7 271 -77 421 -42 92 -32
83 30 -25 126 -219 141 -434 39 -554 -77 -89 -216 -122 -310 -72 -68 36 -110
117 -100 194 7 54 31 86 80 109 32 14 37 19 19 19 -13 0 -41 -17 -64 -39 -38
-35 -42 -43 -46 -97 -11 -161 144 -265 311 -208 62 21 135 87 163 149 13 27
24 43 24 34 0 -44 -35 -118 -97 -206 -88 -125 -95 -140 -99 -243 l-3 -85 8 71
c11 95 36 145 109 229 34 39 75 95 90 125 24 50 27 65 27 165 0 89 -5 124 -24
185 -14 41 -27 77 -31 80 -3 3 -22 40 -42 82 -40 84 -94 168 -170 266 -59 73
-47 80 45 26 203 -118 320 -254 389 -454 32 -93 33 -99 33 -265 0 -147 -3
-180 -23 -248 -56 -194 -120 -320 -265 -522 -134 -186 -177 -285 -177 -410 0
-112 79 -234 184 -284 141 -66 331 -17 392 100 24 46 16 57 -11 13 -15 -26
-42 -50 -77 -70 -49 -27 -61 -29 -153 -29 -115 0 -154 14 -218 78 -60 60 -82
117 -81 212 1 109 32 182 159 370 125 186 143 216 195 338 71 168 93 268 94
442 1 180 -13 242 -85 392 -61 127 -163 240 -292 323 -88 56 -101 70 -68 70
32 0 158 69 209 115 294 264 189 781 -197 971 -48 24 -76 44 -79 58 -3 11 -23
57 -45 101 -84 168 -265 305 -452 340 -96 19 -141 19 -230 0 -161 -34 -281
-128 -356 -280 -36 -73 -45 -85 -54 -70 -85 146 -168 245 -259 309 -178 127
-374 177 -602 155 -226 -21 -447 -113 -694 -289 -160 -114 -266 -159 -376
-160 -183 -1 -320 170 -284 353 19 99 67 171 130 196 14 5 18 10 10 10 -8 0
-28 -7 -45 -16z m2826 -259 c175 -55 329 -203 388 -375 18 -52 21 -56 95 -94
188 -99 302 -238 347 -425 27 -117 10 -270 -43 -374 -35 -69 -132 -161 -211
-200 -156 -76 -200 -60 -287 105 -55 104 -55 104 -55 194 0 101 19 151 75 198
34 29 100 51 113 38 4 -4 12 -30 16 -57 l9 -49 1 59 1 59 35 -6 c77 -13 135
-90 135 -181 0 -72 -34 -123 -107 -160 -68 -34 -168 -11 -204 48 -46 76 -11
163 72 176 l44 7 -38 2 c-30 1 -45 -6 -75 -33 -33 -31 -37 -40 -37 -83 0 -122
134 -189 255 -128 108 55 145 170 93 295 -28 69 -101 119 -174 120 -26 0 -43
8 -64 30 -65 68 -175 78 -262 24 -131 -81 -141 -288 -22 -461 52 -75 132 -156
189 -193 25 -16 51 -38 58 -50 12 -20 10 -20 -81 -20 -190 0 -410 58 -647 171
l-125 60 -38 90 c-101 238 -147 440 -147 637 0 70 4 133 9 141 6 10 25 -8 69
-67 102 -134 248 -233 377 -255 234 -40 388 177 251 356 -20 26 -35 59 -38 85
-10 70 -50 127 -113 157 -47 24 -64 27 -124 23 -86 -4 -142 -39 -177 -108 -58
-112 -2 -245 109 -257 77 -9 139 43 136 114 -1 23 -3 21 -9 -11 -8 -43 -44
-82 -85 -92 -85 -21 -182 93 -156 182 34 118 124 174 231 143 25 -7 53 -14 63
-15 39 -3 106 -96 107 -147 0 -35 -25 -10 -32 31 -8 48 -32 88 -62 104 -17 9
-16 6 6 -18 28 -30 48 -73 48 -103 0 -15 -8 -17 -59 -13 -40 3 -61 0 -66 -8
-6 -9 -4 -11 4 -6 14 9 89 0 109 -12 10 -7 9 -17 -3 -53 -33 -93 -113 -142
-233 -142 -69 0 -80 3 -178 53 -118 59 -167 106 -158 149 12 53 74 168 114
214 133 151 334 199 551 131z m-51 -423 c-36 -128 -219 -197 -374 -142 -33 11
-64 25 -70 31 -5 5 14 0 42 -10 34 -13 77 -20 120 -20 130 0 213 50 248 147
15 43 21 50 31 40 9 -9 10 -22 3 -46z m78 -122 c-5 -101 -53 -154 -161 -179
-61 -13 -134 1 -222 44 -62 31 -185 123 -193 145 -1 4 30 -9 70 -28 68 -34 77
-36 172 -36 90 0 106 3 152 27 46 24 114 90 114 110 0 4 5 19 11 35 l10 28 25
-40 c21 -34 25 -50 22 -106z m275 -275 c65 -22 77 -39 35 -53 -53 -18 -105
-67 -134 -129 -24 -49 -28 -69 -29 -148 0 -88 2 -95 42 -175 l42 -84 -60 65
c-83 90 -140 205 -147 298 -4 60 -1 78 20 124 26 56 66 93 116 108 41 13 64
11 115 -6z m104 -80 c2 -7 -9 -15 -24 -18 -15 -4 -47 -18 -70 -32 -86 -50
-127 -206 -86 -326 24 -70 20 -75 -8 -11 -45 104 -33 234 30 320 44 61 146
104 158 67z m100 1 c42 -18 70 -40 86 -70 7 -14 -1 -10 -27 12 -35 32 -53 39
-105 46 -14 2 -27 9 -29 15 -5 17 32 15 75 -3z"/>
<path d="M8788 12457 c18 -5 49 -28 68 -50 35 -38 36 -42 32 -100 -4 -52 -9
-64 -36 -88 -17 -15 -47 -31 -66 -35 -49 -9 -117 15 -133 46 -11 22 -13 23
-19 6 -9 -24 12 -62 49 -90 34 -25 118 -27 164 -3 91 48 111 183 40 264 -32
37 -82 64 -114 62 -10 -1 -3 -6 15 -12z"/>
<path d="M3495 12374 c-60 -19 -141 -40 -180 -47 l-70 -13 56 -26 c81 -39 138
-51 231 -47 65 3 95 10 132 29 92 47 107 104 35 129 -50 17 -85 13 -204 -25z
m205 -14 c13 -8 10 -14 -15 -34 -72 -60 -221 -76 -340 -37 l-60 19 40 2 c22 1
90 14 150 30 114 29 199 37 225 20z"/>
<path d="M9102 12403 c-12 -2 -30 -16 -39 -29 -15 -24 -15 -27 4 -52 11 -15
44 -39 73 -54 46 -25 63 -28 144 -28 93 0 193 26 245 62 21 15 19 16 -31 22
-29 4 -111 25 -181 47 -121 37 -160 42 -215 32z m220 -63 c67 -16 138 -30 158
-31 33 -1 31 -2 -25 -20 -118 -39 -269 -23 -340 36 -25 21 -28 26 -15 35 26
17 95 11 222 -20z"/>
<path d="M2750 12283 c-36 -10 -86 -30 -111 -45 -46 -27 -129 -109 -129 -128
0 -6 14 5 31 24 37 43 149 100 226 117 79 16 204 6 278 -21 51 -20 76 -39 170
-134 95 -97 190 -176 210 -176 3 0 -22 21 -57 48 -34 26 -85 76 -113 112 -86
111 -146 165 -211 190 -82 30 -208 36 -294 13z"/>
<path d="M4429 12288 c-16 -5 -32 -22 -39 -39 -35 -84 84 -137 129 -58 31 55
-28 118 -90 97z m60 -46 c12 -22 -11 -62 -34 -62 -8 0 -21 10 -29 22 -20 28
-4 58 29 58 13 0 29 -8 34 -18z"/>
<path d="M8312 12284 c-81 -34 -28 -157 56 -128 40 14 59 54 43 92 -17 40 -56
54 -99 36z m66 -55 c4 -31 -20 -53 -47 -44 -45 14 -30 79 17 73 21 -2 28 -9
30 -29z"/>
<path d="M4584 12235 c-4 -8 -1 -22 6 -30 11 -13 233 -15 1825 -15 1923 0
1847 -2 1829 44 -6 15 -155 16 -1830 16 -1620 0 -1825 -2 -1830 -15z"/>
<path d="M9386 11935 c-11 -8 -15 -15 -9 -15 6 0 16 7 23 15 16 19 11 19 -14
0z"/>
<path d="M3348 11913 c7 -3 16 -2 19 1 4 3 -2 6 -13 5 -11 0 -14 -3 -6 -6z"/>
<path d="M2708 11867 c-28 -23 -48 -57 -48 -79 0 -7 9 5 20 27 11 22 32 48 47
57 16 10 24 18 18 18 -5 0 -22 -10 -37 -23z"/>
<path d="M10073 11872 c15 -9 36 -35 47 -57 11 -22 20 -33 20 -25 0 31 -59 99
-85 99 -5 0 2 -7 18 -17z"/>
<path d="M2796 11528 c-9 -12 -16 -30 -16 -40 0 -24 35 -58 60 -58 27 0 60 35
60 63 0 53 -75 77 -104 35z m64 -24 c11 -12 10 -18 -3 -32 -16 -15 -18 -15
-34 0 -13 14 -14 20 -3 32 7 9 16 16 20 16 4 0 13 -7 20 -16z"/>
<path d="M9917 11532 c-26 -28 -21 -69 9 -88 55 -37 117 25 80 80 -20 31 -65
35 -89 8z m63 -28 c11 -12 10 -18 -3 -32 -16 -15 -18 -15 -34 0 -13 14 -14 20
-3 32 7 9 16 16 20 16 4 0 13 -7 20 -16z"/>
<path d="M2035 10852 c-54 -18 -85 -60 -85 -115 0 -31 7 -46 34 -73 29 -29 41
-34 79 -34 132 0 159 172 34 219 -31 12 -33 12 -62 3z m70 -38 c17 -7 45 -54
45 -78 0 -8 -12 -28 -26 -45 -39 -47 -102 -42 -129 10 -21 40 -19 66 10 94 24
25 65 32 100 19z"/>
<path d="M10694 10846 c-80 -35 -98 -132 -35 -188 24 -22 41 -28 76 -28 63 0
105 38 112 102 5 42 2 49 -28 81 -39 41 -81 52 -125 33z m101 -51 c29 -28 31
-54 10 -94 -33 -65 -132 -50 -151 23 -6 26 17 81 38 89 34 14 80 6 103 -18z"/>
<path d="M639 10193 c-49 -41 -104 -134 -124 -207 -26 -96 -18 -232 19 -311
32 -71 65 -107 167 -186 42 -32 91 -77 110 -101 43 -56 49 -63 49 -55 0 13
-89 115 -172 195 -63 61 -93 99 -112 141 -44 99 -51 225 -17 346 14 53 75 154
109 182 15 13 22 23 15 23 -6 0 -26 -12 -44 -27z"/>
<path d="M12133 10196 c42 -39 86 -116 109 -189 16 -55 19 -87 16 -170 -6
-149 -28 -193 -171 -335 -62 -60 -121 -125 -131 -144 -22 -38 -13 -30 33 30
19 24 68 69 110 101 42 33 90 74 108 92 110 116 125 360 30 517 -33 55 -98
122 -118 122 -7 0 0 -11 14 -24z"/>
<path d="M1028 10073 c7 -3 16 -2 19 1 4 3 -2 6 -13 5 -11 0 -14 -3 -6 -6z"/>
<path d="M11758 10073 c7 -3 16 -2 19 1 4 3 -2 6 -13 5 -11 0 -14 -3 -6 -6z"/>
<path d="M939 10031 c-22 -21 -39 -44 -39 -51 0 -7 10 2 23 21 12 19 38 42 57
51 23 12 28 18 16 18 -10 0 -36 -17 -57 -39z"/>
<path d="M11810 10059 c14 -6 34 -18 45 -27 12 -9 8 -5 -7 11 -16 15 -36 27
-46 26 -12 0 -9 -3 8 -10z"/>
<path d="M11886 9987 c3 -10 9 -15 12 -12 3 3 0 11 -7 18 -10 9 -11 8 -5 -6z"/>
<path d="M1274 9942 c-6 -4 -17 -18 -24 -31 -10 -20 -9 -27 7 -50 11 -14 30
-27 42 -29 49 -8 82 66 45 102 -16 17 -51 21 -70 8z m54 -48 c3 -22 -21 -39
-39 -28 -11 6 -12 38 -2 48 13 13 38 1 41 -20z"/>
<path d="M11456 9934 c-35 -34 -8 -104 41 -104 45 0 71 71 37 104 -8 9 -26 16
-39 16 -13 0 -31 -7 -39 -16z m62 -40 c3 -22 -21 -39 -39 -28 -11 6 -12 38 -2
48 13 13 38 1 41 -20z"/>
<path d="M471 9436 c-1 -24 -20 -101 -41 -171 -43 -138 -51 -215 -24 -253 53
-76 154 56 154 201 0 34 -6 85 -14 112 -16 61 -56 155 -65 155 -4 0 -8 -20
-10 -44z m43 -72 c20 -77 20 -166 2 -228 -16 -51 -62 -120 -76 -111 -23 14
-19 84 10 205 17 69 32 144 32 168 1 55 12 43 32 -34z"/>
<path d="M12287 9423 c-34 -75 -46 -133 -47 -210 0 -145 101 -277 154 -201 27
37 19 113 -24 250 -21 70 -40 148 -42 173 -2 25 -6 45 -9 45 -4 0 -18 -26 -32
-57z m30 -26 c1 -24 16 -101 33 -172 29 -122 32 -186 10 -200 -13 -8 -57 55
-75 104 -19 56 -19 160 0 235 14 53 23 76 28 76 1 0 3 -19 4 -43z"/>
<path d="M865 9310 c3 -5 8 -10 11 -10 2 0 4 5 4 10 0 6 -5 10 -11 10 -5 0 -7
-4 -4 -10z"/>
<path d="M11920 9309 c0 -5 5 -7 10 -4 6 3 10 8 10 11 0 2 -4 4 -10 4 -5 0
-10 -5 -10 -11z"/>
<path d="M420 8841 c-45 -23 -87 -85 -95 -136 l-5 -40 15 46 c30 93 117 137
199 100 63 -27 79 -57 74 -133 -4 -51 -9 -65 -32 -85 -22 -18 -24 -24 -12 -29
25 -10 70 19 88 56 39 77 9 184 -62 221 -45 25 -125 25 -170 0z"/>
<path d="M12212 8844 c-51 -26 -76 -69 -80 -139 -4 -69 20 -119 65 -136 44
-16 59 -3 27 25 -24 20 -28 32 -32 88 -4 58 -2 67 23 96 76 91 222 43 255 -84
l10 -39 -4 37 c-7 54 -34 106 -74 136 -44 34 -139 42 -190 16z"/>
<path d="M525 8325 c-40 -39 -29 -97 22 -116 62 -23 119 40 89 99 -25 49 -72
56 -111 17z m69 -18 c26 -19 18 -61 -12 -65 -44 -7 -67 32 -36 62 19 19 25 20
48 3z"/>
<path d="M12187 8339 c-48 -28 -40 -107 12 -129 75 -31 134 58 76 115 -25 26
-58 31 -88 14z m69 -40 c24 -27 8 -54 -32 -54 -23 0 -30 5 -32 24 -3 15 3 30
14 38 24 17 28 17 50 -8z"/>
<path d="M552 8168 c-9 -9 -12 -389 -12 -1752 0 -958 4 -1747 9 -1754 5 -8 17
-12 27 -10 19 3 19 49 19 1763 0 1567 -2 1760 -15 1763 -9 1 -21 -3 -28 -10z"/>
<path d="M12205 8138 c-3 -7 -4 -794 -3 -1748 3 -1689 3 -1735 22 -1738 10 -2
22 2 27 10 5 7 9 789 9 1739 0 1328 -3 1728 -12 1737 -16 16 -37 15 -43 0z"/>
<path d="M12203 4589 c-53 -20 -65 -92 -20 -124 64 -45 144 26 107 95 -13 24
-59 39 -87 29z m57 -48 c5 -11 7 -26 4 -35 -8 -21 -42 -30 -59 -16 -15 13 -20
51 -8 63 13 14 53 6 63 -12z"/>
<path d="M520 4568 c-27 -29 -25 -69 3 -96 48 -45 120 -16 120 48 0 64 -79 95
-123 48z m84 -30 c8 -13 8 -23 0 -35 -28 -45 -89 -9 -64 38 13 24 48 22 64 -3z"/>
<path d="M522 4400 c-24 -5 -62 -19 -85 -32 -44 -25 -107 -99 -107 -126 0 -11
7 -5 19 14 57 94 221 140 344 98 61 -21 132 -84 163 -147 70 -137 29 -279
-151 -534 -224 -314 -315 -651 -256 -939 47 -228 165 -399 365 -529 l88 -57
-55 -23 c-286 -116 -409 -387 -313 -691 56 -175 193 -325 366 -401 40 -18 47
-26 64 -74 80 -233 312 -404 566 -417 246 -12 444 120 530 352 l11 29 51 -84
c33 -54 84 -117 142 -174 104 -103 195 -157 341 -201 81 -25 105 -27 245 -27
134 0 168 3 251 25 190 51 341 125 538 265 226 160 369 195 508 127 99 -48
156 -144 156 -259 -1 -116 -42 -208 -111 -245 -20 -10 -30 -19 -21 -20 34 -1
104 57 134 111 27 49 30 62 30 149 0 113 -19 165 -87 232 -113 114 -268 128
-443 41 -38 -19 -131 -78 -205 -132 -161 -115 -279 -178 -421 -225 -145 -49
-219 -59 -367 -53 -151 6 -215 21 -342 84 -127 62 -251 182 -335 326 -31 54
-55 101 -52 103 3 3 54 -31 113 -76 60 -44 155 -103 212 -131 78 -39 102 -55
102 -70 0 -29 87 -109 152 -141 78 -38 146 -51 247 -46 67 3 100 10 146 32 70
32 98 56 172 151 30 39 76 90 102 114 25 24 37 38 26 31 -11 -8 -69 -62 -130
-121 -141 -139 -186 -162 -331 -167 -112 -5 -183 10 -266 55 -47 26 -116 89
-107 98 3 2 32 -5 65 -17 48 -18 81 -22 174 -23 104 0 120 2 170 27 30 14 87
54 125 88 84 75 135 100 229 111 l71 8 -85 -3 c-100 -4 -143 -22 -258 -110
-43 -32 -94 -62 -124 -71 -72 -21 -91 -18 -38 6 55 25 115 81 142 133 26 52
34 143 18 203 -42 149 -254 195 -330 71 -11 -18 -20 -42 -20 -53 1 -12 6 -4
14 18 19 51 42 75 87 88 81 25 187 -20 222 -94 48 -100 26 -209 -57 -292 -63
-63 -122 -85 -229 -85 -92 0 -173 22 -282 76 -114 56 -170 97 -75 55 116 -51
216 -75 320 -75 121 -1 172 17 233 83 70 75 76 164 16 215 -33 28 -89 35 -107
13 -8 -10 -2 -12 28 -9 32 3 43 -1 65 -23 68 -75 -8 -215 -135 -245 -154 -37
-372 26 -608 177 l-63 40 39 0 c98 0 146 43 145 128 l-1 49 34 -37 c25 -27 34
-46 34 -73 0 -85 -47 -106 -180 -79 -15 3 -12 0 10 -9 57 -24 114 -20 148 9
38 32 48 72 28 118 -13 33 -59 77 -80 77 -5 0 -10 -18 -12 -40 -8 -83 -49
-120 -135 -120 l-25 0 8 73 c21 193 -45 493 -169 769 l-26 60 -111 53 c-247
118 -438 172 -640 182 l-128 6 6 45 c9 69 37 92 121 102 l50 5 -46 48 c-41 41
-51 47 -88 47 -34 0 -49 -6 -72 -29 -24 -25 -29 -37 -28 -78 0 -26 7 -64 15
-83 8 -20 12 -24 9 -10 -3 14 -8 48 -12 77 -5 48 -4 54 25 82 32 33 67 39 105
20 25 -13 67 -50 67 -58 0 -3 -25 -6 -55 -6 -45 0 -59 -4 -80 -25 -25 -26 -48
-109 -38 -139 12 -34 -18 7 -81 113 -174 290 -195 556 -53 670 52 41 122 44
162 6 23 -22 26 -31 22 -70 -5 -40 -4 -43 9 -25 31 42 6 112 -50 139 -41 20
-67 20 -109 3 -178 -75 -205 -333 -65 -622 44 -91 -2 -29 -56 75 -61 118 -86
205 -86 301 0 188 108 309 277 309 184 0 278 -230 131 -320 -18 -11 -28 -20
-23 -20 24 0 73 40 88 73 53 110 -22 250 -147 278 -130 29 -274 -50 -320 -177
-10 -26 -15 -32 -15 -18 -2 47 34 126 91 200 82 107 99 149 104 248 l3 81 -9
-72 c-12 -91 -36 -138 -118 -232 -96 -110 -107 -140 -106 -286 0 -98 4 -131
22 -179 12 -33 21 -61 19 -62 -9 -9 -52 34 -81 80 -66 104 -90 214 -75 341 14
110 53 179 157 274 49 44 103 102 122 128 33 47 33 46 -30 -17 -36 -36 -99
-92 -140 -125 -60 -48 -82 -74 -109 -127 -29 -58 -34 -79 -39 -161 -5 -111 7
-177 51 -259 32 -63 116 -148 144 -148 12 0 24 -16 37 -48 29 -72 91 -174 162
-269 36 -47 62 -88 60 -91 -16 -15 -188 91 -268 166 -229 214 -300 559 -187
912 37 116 127 281 230 425 180 251 222 385 167 532 -29 78 -113 163 -183 186
-66 21 -140 28 -193 17z m848 -2294 c131 -30 241 -71 396 -145 l120 -58 41
-99 c97 -235 133 -387 140 -590 7 -199 2 -207 -69 -118 -140 175 -290 266
-438 267 -136 0 -232 -79 -247 -202 -6 -54 20 -127 61 -171 15 -16 25 -42 29
-73 13 -125 139 -206 276 -176 64 13 131 73 151 134 30 92 -14 195 -97 224
-51 18 -87 9 -130 -34 -27 -27 -33 -40 -32 -72 l2 -38 7 44 c9 60 46 91 106
91 125 0 180 -148 97 -258 -37 -50 -80 -72 -137 -72 -94 0 -169 58 -182 142
l-6 33 69 -2 68 -1 -58 8 c-32 4 -63 12 -68 17 -13 13 15 91 44 121 46 50 95
67 192 67 90 0 90 0 194 -55 76 -40 110 -64 128 -91 22 -34 23 -37 8 -78 -81
-231 -276 -363 -510 -348 -244 17 -469 194 -544 428 -10 32 -22 41 -99 79
-157 78 -276 221 -328 396 -40 134 -16 311 58 427 60 93 197 189 305 212 56
12 103 -24 157 -119 58 -104 76 -156 76 -220 0 -107 -43 -191 -116 -225 -75
-36 -93 -25 -94 52 0 16 -4 26 -9 22 -6 -3 -7 -28 -4 -56 5 -39 3 -49 -8 -45
-8 2 -26 7 -41 10 -14 3 -40 18 -57 32 -17 14 -31 21 -31 15 0 -17 73 -61 113
-68 35 -5 55 -18 45 -29 -3 -2 -27 3 -55 11 -35 11 -62 27 -87 55 -35 39 -46
57 -26 45 13 -8 13 -4 -5 38 -25 60 -20 128 14 174 33 45 101 83 149 83 120 0
196 -126 126 -209 -14 -17 -33 -31 -42 -32 -11 0 -13 -2 -4 -6 21 -8 63 26 79
64 20 49 10 96 -33 142 -134 149 -370 -7 -324 -214 21 -93 74 -145 170 -167
32 -7 74 -26 99 -45 49 -37 91 -48 162 -41 70 7 126 48 162 118 26 50 28 62
25 142 -4 75 -9 96 -40 160 -46 91 -129 192 -199 243 -85 61 -101 77 -87 87
22 16 228 0 338 -26z m-120 -249 c86 -130 103 -275 43 -361 -54 -77 -140 -104
-220 -71 -66 28 -68 35 -15 60 54 25 96 70 126 135 16 35 20 65 20 135 1 83
-2 96 -34 160 -19 39 -36 75 -38 80 -6 20 81 -82 118 -138z m-65 -102 c0 -69
-4 -88 -30 -140 -37 -73 -89 -117 -141 -119 -52 -1 -53 18 0 32 59 15 99 51
126 114 31 72 37 151 16 219 -10 30 -19 61 -22 69 -2 8 8 -10 23 -40 23 -46
28 -68 28 -135z m488 -446 c71 -24 175 -90 230 -147 l38 -38 -82 40 c-77 38
-88 41 -168 41 -136 0 -229 -50 -270 -145 -12 -27 -24 -50 -26 -50 -7 0 -41
72 -49 103 -8 34 9 102 35 139 11 14 42 38 71 52 65 32 135 34 221 5z m160
-152 c31 -14 57 -28 57 -31 0 -3 -21 4 -47 16 -151 67 -334 7 -380 -123 -19
-51 -39 -60 -36 -16 10 150 232 234 406 154z m-385 -238 c6 -52 13 -70 45
-105 26 -31 28 -35 9 -25 -31 17 -72 81 -79 126 -5 30 -3 37 8 33 8 -2 15 -15
17 -29z"/>
<path d="M12127 4399 c-89 -21 -168 -85 -215 -174 -24 -44 -27 -61 -27 -145 0
-85 4 -103 33 -170 18 -41 55 -106 82 -145 190 -269 254 -383 303 -540 38
-123 50 -220 45 -357 -13 -295 -149 -515 -415 -668 -97 -55 -116 -53 -65 8 64
76 146 205 182 284 28 62 39 76 74 93 52 25 117 106 147 182 20 49 23 77 24
178 0 109 -2 125 -26 175 -34 73 -67 110 -159 180 -43 33 -97 81 -120 107 -32
36 -36 39 -19 13 13 -19 69 -80 126 -135 130 -127 155 -176 161 -314 5 -110
-8 -182 -49 -263 -27 -54 -96 -135 -105 -125 -3 3 5 33 18 68 18 52 22 86 23
179 0 140 -11 169 -109 284 -86 102 -105 140 -116 234 l-9 77 3 -87 c4 -103
19 -139 106 -254 35 -45 67 -100 75 -128 20 -65 18 -105 -1 -50 -45 126 -203
209 -332 175 -117 -32 -188 -180 -133 -281 21 -41 90 -81 135 -79 26 1 25 2
-13 10 -120 23 -164 124 -103 240 37 71 89 99 182 99 263 0 351 -293 184 -610
-56 -105 -99 -163 -55 -73 75 152 106 337 76 448 -42 156 -200 236 -287 143
-27 -29 -35 -67 -22 -102 11 -29 20 -17 16 22 -3 33 1 42 28 65 69 58 170 17
226 -93 42 -83 26 -263 -39 -420 -29 -71 -146 -280 -157 -280 -3 0 -6 17 -8
38 -6 94 -43 132 -128 132 l-49 0 31 31 c21 20 44 32 72 36 36 5 45 2 73 -26
29 -29 31 -36 26 -79 -3 -26 -8 -58 -12 -72 -6 -22 -5 -23 5 -7 7 11 14 45 17
77 5 55 4 61 -25 89 -23 24 -40 31 -68 31 -44 0 -93 -28 -116 -68 l-18 -30 56
-4 c70 -6 101 -34 110 -99 l6 -46 -133 -6 c-101 -5 -163 -13 -252 -36 -125
-32 -316 -107 -431 -169 -69 -37 -70 -38 -104 -117 -114 -267 -177 -571 -154
-749 l9 -68 -50 6 c-27 4 -57 12 -68 19 -24 15 -43 62 -44 109 0 21 -3 38 -7
38 -17 0 -72 -57 -85 -88 -19 -45 -9 -85 29 -117 33 -28 65 -31 134 -14 61 16
49 22 -15 8 -29 -6 -63 -8 -76 -5 -64 16 -85 94 -42 156 29 43 52 52 43 17 -8
-33 1 -77 23 -105 21 -28 116 -56 143 -41 10 5 18 6 18 2 -1 -13 -219 -140
-288 -168 -263 -107 -472 -77 -536 76 -34 81 38 174 106 138 21 -11 22 -11 9
4 -24 30 -78 22 -117 -17 -30 -30 -34 -41 -34 -83 0 -89 78 -170 190 -199 107
-27 289 5 430 76 69 35 79 32 19 -6 -202 -127 -397 -165 -537 -104 -150 65
-211 267 -115 381 67 79 207 92 262 25 7 -9 20 -33 28 -53 l14 -38 -6 35 c-3
21 -19 49 -40 70 -34 34 -38 35 -109 35 -66 0 -79 -3 -117 -30 -23 -16 -53
-50 -67 -75 -33 -62 -28 -176 10 -241 37 -62 87 -106 144 -129 28 -11 40 -19
28 -20 -49 -1 -120 33 -214 100 -114 82 -164 101 -264 99 l-71 -2 80 -7 c95
-8 140 -29 222 -101 32 -29 77 -64 101 -79 84 -55 237 -63 372 -21 35 11 67
18 70 15 8 -10 -78 -81 -126 -104 -140 -68 -329 -67 -447 3 -23 14 -88 72
-143 129 -56 57 -117 112 -135 122 -39 22 -32 13 29 -33 23 -18 63 -61 89 -94
68 -91 123 -146 168 -169 165 -86 395 -53 526 74 22 21 42 51 45 66 5 23 16
32 65 52 65 25 210 116 299 186 31 24 59 44 63 44 10 0 -28 -73 -80 -154 -146
-227 -361 -350 -633 -363 -131 -6 -225 6 -350 43 -164 50 -246 96 -543 301
-122 85 -200 115 -310 121 -83 4 -91 3 -152 -27 -119 -59 -185 -167 -185 -299
1 -129 65 -231 160 -257 17 -4 11 2 -17 20 -64 39 -106 131 -107 233 -1 65 4
86 27 134 65 133 203 193 355 154 85 -21 145 -53 302 -161 322 -221 604 -309
878 -276 258 32 455 155 603 379 69 104 69 104 79 76 66 -177 200 -298 372
-339 289 -68 604 107 723 402 22 55 28 60 92 93 91 46 163 100 211 158 206
246 212 589 13 791 -60 61 -139 111 -208 132 -24 7 -43 15 -43 18 0 4 17 15
37 26 21 11 71 45 113 76 282 212 385 577 274 967 -34 121 -137 326 -229 457
-178 253 -220 395 -156 529 48 98 136 157 247 164 121 8 217 -33 265 -113 11
-18 19 -24 19 -14 0 25 -56 96 -97 123 -63 42 -160 55 -246 35z m-353 -2274
c-3 -8 -34 -35 -69 -60 -177 -126 -292 -340 -264 -489 20 -110 96 -186 193
-194 65 -5 117 10 159 48 19 16 50 31 77 35 123 20 192 100 194 225 0 51 -5
75 -24 110 -55 98 -189 137 -276 79 -50 -33 -79 -93 -70 -143 8 -42 59 -96 89
-96 18 1 17 3 -9 14 -42 19 -64 52 -64 99 0 50 24 90 70 116 104 58 246 -18
258 -138 2 -27 -2 -66 -9 -87 -7 -22 -14 -47 -15 -56 -3 -37 -61 -83 -123 -97
-61 -13 -48 10 14 25 31 8 59 24 79 46 21 21 23 25 6 11 -36 -30 -65 -43 -94
-43 -25 0 -26 3 -27 58 l-1 57 -9 -49 c-11 -67 -19 -73 -73 -52 -85 33 -128
100 -134 211 -4 83 14 139 82 255 72 122 113 133 254 65 265 -127 354 -442
204 -730 -55 -105 -165 -211 -273 -264 l-85 -41 -33 -80 c-158 -388 -658 -517
-916 -238 -52 55 -110 157 -129 223 -14 48 77 125 213 182 109 44 253 23 318
-48 27 -30 57 -109 45 -121 -5 -5 -35 -12 -68 -17 l-59 -10 68 2 c57 2 67 -1
67 -15 0 -29 -20 -72 -48 -100 -14 -16 -21 -28 -14 -28 20 0 62 67 70 111 4
23 13 44 21 47 19 6 6 -62 -20 -104 -21 -35 -65 -68 -78 -59 -5 2 -26 -2 -47
-11 -48 -20 -126 -14 -162 13 -35 26 -69 77 -82 122 -28 102 71 212 164 181
45 -15 68 -42 77 -93 6 -39 7 -40 8 -9 3 95 -109 154 -189 100 -59 -41 -75
-72 -75 -148 0 -60 4 -74 30 -112 45 -63 95 -88 177 -88 105 0 167 35 204 114
13 28 24 65 24 82 0 19 8 38 21 50 68 62 85 184 36 267 -73 125 -245 148 -416
57 -99 -53 -158 -108 -265 -245 -39 -51 -46 -36 -46 111 0 206 44 398 149 644
l36 85 115 57 c130 64 355 141 475 162 44 8 124 15 177 15 82 1 96 -1 92 -14z
m-141 -202 c-85 -171 -37 -364 106 -434 l55 -27 -35 -21 c-128 -78 -274 4
-286 162 -7 79 13 150 64 235 37 60 122 166 128 160 2 -2 -12 -36 -32 -75z
m15 -40 c-54 -154 21 -333 150 -359 18 -4 31 -12 29 -18 -6 -19 -44 -18 -84 2
-124 64 -166 236 -98 399 23 54 25 37 3 -24z m-301 -574 c66 -32 96 -78 101
-154 3 -49 0 -70 -17 -103 -12 -23 -23 -42 -25 -42 -3 0 -16 24 -29 54 -65
141 -265 188 -438 103 l-74 -36 57 53 c61 58 147 111 212 132 66 20 163 17
213 -7z m-93 -153 c62 -30 102 -75 117 -132 8 -28 8 -39 -3 -45 -9 -6 -16 2
-25 27 -36 104 -109 155 -233 162 -50 3 -88 -1 -115 -11 -75 -27 -80 -28 -50
-11 90 52 215 56 309 10z"/>
<path d="M12189 4225 c-39 -21 -62 -77 -57 -140 8 -93 69 -149 163 -149 91 0
169 71 180 164 l5 45 -13 -48 c-36 -125 -175 -166 -252 -75 -25 29 -27 38 -23
96 3 55 8 68 31 87 21 19 23 24 11 29 -19 7 -13 8 -45 -9z"/>
<path d="M566 4212 c32 -26 44 -55 44 -110 0 -106 -109 -166 -200 -111 -44 27
-56 43 -75 99 l-15 45 6 -40 c8 -52 27 -87 64 -119 114 -95 280 -23 280 122 0
72 -43 132 -94 132 -31 0 -31 0 -10 -18z"/>
<path d="M409 3794 c-29 -36 -23 -117 19 -256 23 -73 42 -152 43 -175 2 -24 6
-43 10 -43 11 0 58 113 70 170 6 29 9 83 7 119 -10 132 -100 244 -149 185z
m84 -83 c39 -69 48 -174 23 -271 -21 -81 -30 -91 -33 -37 -2 23 -16 97 -33
165 -34 139 -34 140 -20 177 14 36 28 28 63 -34z"/>
<path d="M12301 3774 c-17 -21 -37 -58 -46 -83 -17 -52 -20 -158 -4 -216 13
-50 60 -155 68 -155 3 0 7 20 9 44 1 24 20 101 42 171 55 176 51 266 -12 273
-20 2 -33 -6 -57 -34z m73 -39 c5 -24 -3 -76 -25 -166 -17 -71 -32 -148 -33
-169 -1 -50 -11 -39 -30 35 -30 112 -16 235 33 304 29 41 47 39 55 -4z"/>
<path d="M860 3478 c-12 -22 -12 -22 6 -6 10 10 15 20 12 24 -4 3 -12 -5 -18
-18z"/>
<path d="M11920 3491 c0 -5 7 -15 17 -22 15 -13 15 -12 4 9 -12 23 -21 28 -21
13z"/>
<path d="M1280 2957 c-53 -27 -40 -99 18 -105 43 -4 62 12 62 53 0 47 -39 72
-80 52z m48 -50 c4 -20 -25 -34 -40 -19 -15 15 -1 44 19 40 10 -2 19 -11 21
-21z"/>
<path d="M11462 2954 c-29 -20 -31 -79 -3 -94 69 -36 131 44 71 92 -27 22 -39
22 -68 2z m56 -48 c-2 -13 -10 -21 -23 -21 -23 0 -33 34 -14 45 20 13 40 -1
37 -24z"/>
<path d="M11878 2800 c-9 -16 -32 -39 -50 -50 -18 -11 -28 -20 -21 -20 15 0
71 47 84 72 17 32 5 30 -13 -2z"/>
<path d="M924 2778 c21 -33 74 -58 118 -57 28 1 25 3 -16 10 -34 5 -59 17 -84
41 -31 29 -33 30 -18 6z"/>
<path d="M2008 2154 c-76 -41 -74 -159 2 -199 57 -30 127 -10 155 45 53 103
-55 210 -157 154z m108 -38 c54 -46 30 -127 -43 -142 -27 -5 -37 -1 -63 24
-39 39 -39 74 -1 113 36 35 70 37 107 5z"/>
<path d="M10683 2160 c-29 -12 -63 -67 -63 -103 0 -40 28 -84 66 -102 40 -19
56 -19 99 -1 105 44 71 217 -43 215 -20 0 -47 -4 -59 -9z m108 -49 c35 -36 37
-70 5 -107 -46 -54 -127 -30 -142 43 -5 27 -1 37 24 63 39 39 74 39 113 1z"/>
<path d="M9921 1351 c-40 -40 -15 -101 42 -101 27 0 57 32 57 60 0 48 -66 74
-99 41z m64 -40 c0 -8 -8 -19 -17 -25 -22 -13 -44 5 -34 29 7 20 51 16 51 -4z"/>
<path d="M2797 1342 c-22 -24 -21 -55 1 -75 38 -35 102 -9 102 41 0 48 -70 71
-103 34z m68 -37 c0 -25 -40 -33 -49 -10 -9 24 2 37 27 33 14 -2 22 -10 22
-23z"/>
<path d="M10126 996 c-4 -16 -22 -43 -39 -60 -25 -24 -26 -27 -7 -15 29 19 64
73 58 91 -3 7 -8 0 -12 -16z"/>
<path d="M2660 1000 c0 -9 12 -29 28 -46 15 -17 22 -23 15 -15 -6 9 -19 30
-27 46 -9 17 -16 23 -16 15z"/>
<path d="M3410 869 c0 -5 5 -7 10 -4 6 3 10 8 10 11 0 2 -4 4 -10 4 -5 0 -10
-5 -10 -11z"/>
<path d="M9375 870 c3 -5 8 -10 11 -10 2 0 4 5 4 10 0 6 -5 10 -11 10 -5 0 -7
-4 -4 -10z"/>
<path d="M8723 668 c-48 -10 -93 -55 -93 -94 0 -28 16 -32 25 -6 11 37 99 59
155 39 47 -16 80 -68 80 -124 0 -77 -36 -120 -125 -150 l-40 -13 40 6 c98 15
165 86 165 177 0 117 -89 188 -207 165z"/>
<path d="M3951 651 c-77 -41 -104 -153 -58 -236 24 -44 110 -96 156 -94 25 1
24 1 -4 8 -87 21 -135 75 -135 149 0 89 44 132 133 132 52 0 62 -3 89 -30 16
-16 31 -30 34 -30 10 0 2 48 -12 68 -36 52 -137 68 -203 33z"/>
<path d="M4423 638 c-52 -25 -52 -105 1 -129 83 -38 147 84 66 126 -33 17 -37
17 -67 3z m66 -46 c12 -22 -11 -62 -34 -62 -8 0 -21 10 -29 22 -20 28 -4 58
29 58 13 0 29 -8 34 -18z"/>
<path d="M8295 625 c-48 -47 -19 -119 49 -119 47 0 70 23 70 70 0 68 -72 97
-119 49z m86 -36 c14 -28 -23 -64 -52 -49 -31 17 -35 41 -10 61 25 20 47 16
62 -12z"/>
<path d="M4586 594 c-20 -19 -20 -28 -2 -43 10 -8 493 -10 1821 -9 1732 3
1808 4 1819 21 30 49 104 47 -1825 47 -1621 0 -1799 -2 -1813 -16z"/>
<path d="M3400 546 c-59 -17 -150 -56 -150 -66 0 -4 19 -7 43 -8 23 -1 103
-20 176 -42 160 -48 220 -52 257 -15 21 21 23 28 13 47 -43 81 -206 121 -339
84z m213 -36 c52 -20 107 -63 90 -73 -32 -18 -75 -15 -194 13 -72 17 -151 32
-174 33 -54 2 -47 11 25 30 82 22 189 21 253 -3z"/>
<path d="M9175 547 c-47 -18 -104 -57 -115 -78 -14 -25 3 -57 36 -69 45 -18
100 -11 230 29 71 22 151 42 179 46 l50 7 -35 19 c-100 54 -267 76 -345 46z
m275 -36 c49 -15 58 -20 35 -20 -16 -1 -86 -15 -155 -31 -124 -30 -224 -38
-235 -21 -10 18 52 63 115 82 49 15 173 9 240 -10z"/>
</g>
</svg>
