<?xml version="1.0" standalone="no"?>
<!DOCTYPE svg PUBLIC "-//W3C//DTD SVG 20010904//EN"
 "http://www.w3.org/TR/2001/REC-SVG-20010904/DTD/svg10.dtd">
<svg version="1.0" xmlns="http://www.w3.org/2000/svg"
 width="1228.000000pt" height="1280.000000pt" viewBox="0 0 1228.000000 1280.000000"
 preserveAspectRatio="xMidYMid meet">
<metadata>
Created by potrace 1.15, written by Peter Selinger 2001-2017
</metadata>
<g transform="translate(0.000000,1280.000000) scale(0.100000,-0.100000)"
fill="#c99f4cff" stroke="none">
<path d="M6056 12688 c-122 -287 -479 -1010 -921 -1863 -555 -1072 -682 -1333
-769 -1584 -127 -366 -173 -648 -163 -995 6 -213 25 -339 81 -532 51 -176 109
-304 273 -607 206 -381 494 -957 479 -957 -2 0 -30 35 -62 78 -163 218 -411
477 -609 635 -520 417 -1102 661 -1760 738 -141 17 -526 17 -675 0 -255 -28
-466 -89 -695 -201 -641 -312 -1102 -940 -1216 -1655 -8 -45 -13 -165 -13
-275 0 -159 4 -217 22 -313 79 -420 297 -789 631 -1068 243 -204 538 -366 885
-488 97 -34 422 -127 549 -157 28 -6 28 -6 -43 135 -39 79 -84 182 -100 230
-137 408 -29 903 262 1202 295 302 724 376 1230 213 270 -87 548 -238 773
-419 97 -78 274 -256 344 -344 l43 -55 -62 -17 c-206 -56 -293 -269 -173 -426
l35 -46 -35 -31 c-142 -125 -186 -322 -106 -484 18 -36 56 -90 85 -120 l53
-55 -30 -37 c-33 -40 -59 -114 -59 -165 0 -88 72 -196 163 -241 27 -14 79 -31
115 -38 l66 -12 -45 -26 c-117 -67 -272 -98 -406 -80 -148 20 -250 69 -336
161 -84 90 -119 189 -118 336 1 191 57 352 225 649 31 54 55 100 53 102 -1 2
-74 10 -162 20 -509 53 -890 -66 -1165 -363 -140 -151 -237 -339 -288 -557
-23 -98 -26 -133 -27 -296 0 -203 9 -269 57 -415 114 -342 347 -596 702 -766
250 -120 563 -189 854 -189 449 0 868 147 1190 420 39 33 72 59 72 57 0 -11
-84 -215 -111 -268 -86 -172 -170 -260 -407 -424 -94 -66 -172 -122 -172 -125
0 -3 147 -2 327 1 384 8 456 18 635 93 13 6 19 -3 32 -48 35 -121 97 -238 276
-521 118 -186 212 -348 256 -437 l28 -58 66 0 65 0 72 148 c39 81 121 234 182
340 153 265 226 406 261 498 17 49 33 78 42 77 7 -1 40 -12 73 -24 148 -53
219 -61 578 -68 185 -3 337 -4 337 -1 0 3 -82 59 -182 125 -235 155 -290 210
-368 365 -37 72 -83 191 -77 196 2 2 42 -21 88 -53 448 -302 1088 -376 1653
-192 474 155 794 451 925 857 47 145 56 212 56 412 -1 163 -4 198 -27 296 -51
218 -148 406 -288 557 -275 297 -656 416 -1165 363 -88 -10 -161 -18 -162 -20
-2 -2 22 -48 53 -102 166 -293 223 -455 226 -643 3 -188 -68 -329 -212 -421
-178 -114 -454 -115 -650 -1 l-45 26 90 6 c50 3 109 11 132 17 61 18 134 71
170 124 64 96 63 202 -3 300 l-34 51 51 51 c103 101 148 248 115 374 -22 87
-50 137 -112 203 l-54 56 34 51 c44 65 59 135 45 201 -28 132 -139 218 -307
237 -34 3 -62 9 -62 12 0 28 273 308 396 404 213 169 494 318 752 402 507 164
933 89 1231 -216 290 -295 398 -792 261 -1199 -16 -48 -61 -151 -100 -230 -71
-141 -71 -141 -43 -135 127 30 452 123 549 157 855 299 1381 839 1516 1556 18
96 22 154 22 313 0 110 -5 230 -13 275 -114 715 -575 1343 -1216 1655 -325
159 -592 214 -1035 214 -238 0 -361 -11 -580 -50 -662 -121 -1269 -439 -1760
-923 -75 -75 -163 -165 -195 -201 l-57 -65 110 220 c61 121 164 317 228 435
166 307 246 473 289 602 160 483 143 1023 -50 1586 -93 272 -206 506 -715
1482 -480 921 -839 1640 -980 1965 l-56 130 -70 3 -71 3 -47 -113z m1754
-8513 c24 -15 36 -29 38 -49 5 -39 -21 -63 -82 -76 -36 -8 -501 -10 -1613 -8
-1556 3 -1562 3 -1589 24 -15 11 -32 27 -38 37 -17 26 22 70 75 84 33 9 435
11 1609 10 1558 -2 1565 -2 1600 -22z m0 -1090 c40 -24 52 -66 25 -95 -37 -41
-38 -41 -1672 -38 -1567 3 -1572 3 -1599 24 -15 11 -32 27 -38 37 -17 26 22
70 75 84 33 9 435 11 1609 10 1558 -2 1565 -2 1600 -22z"/>
</g>
</svg>
